<?xml version="1.0" encoding="utf-8"?>
<!-- Generator: Adobe Illustrator 26.0.3, SVG Export Plug-In . SVG Version: 6.00 Build 0)  -->
<svg version="1.0" id="katman_1" xmlns="http://www.w3.org/2000/svg" xmlns:xlink="http://www.w3.org/1999/xlink" x="0px" y="0px"
	 viewBox="0 0 600 450" style="enable-background:new 0 0 600 450;" xml:space="preserve">
<style type="text/css">
	.st0{fill:#E57619;stroke:#E57619;stroke-width:0.747;stroke-miterlimit:23.7982;}
	.st1{fill:#F18420;stroke:#F18420;stroke-width:0.747;stroke-miterlimit:23.7982;}
	.st2{fill:#763D16;stroke:#763D16;stroke-width:0.747;stroke-miterlimit:23.7982;}
	.st3{fill:#E37619;stroke:#E37619;stroke-width:0.747;stroke-miterlimit:23.7982;}
	.st4{fill:#C0AD9E;stroke:#C0AD9E;stroke-width:0.747;stroke-miterlimit:23.7982;}
	.st5{fill:#CD6117;stroke:#CD6117;stroke-width:0.747;stroke-miterlimit:23.7982;}
	.st6{fill:#E5751E;stroke:#E5751E;stroke-width:0.747;stroke-miterlimit:23.7982;}
	.st7{fill:#243447;stroke:#243447;stroke-width:0.747;stroke-miterlimit:23.7982;}
	.st8{fill:#D8C1B3;stroke:#D8C1B3;stroke-width:0.747;stroke-miterlimit:23.7982;}
	.st9{fill:#161616;stroke:#161616;stroke-width:0.747;stroke-miterlimit:23.7982;}
</style>
<path class="st0" d="M434.4,293.8l-18.2,61.6l-35.8-9.8L434.4,293.8z"/>
<path class="st0" d="M380.3,345.6l34.5-47.3l19.5-4.6L380.3,345.6z"/>
<path class="st1" d="M407.5,247.3l26.8,46.5l-19.5,4.6L407.5,247.3z M407.5,247.3l17.3-12l9.6,58.4L407.5,247.3z"/>
<path class="st2" d="M385.6,212.2l49.6-20.3l-2.5,11.1L385.6,212.2z M431.1,216.4l-45.6-4.2l47.1-9.2L431.1,216.4z"/>
<path class="st2" d="M431.1,216.4l-6.3,19l-39.2-23.2L431.1,216.4z M441.1,196.6l-8.4,6.4l2.5-11.1L441.1,196.6z M431.1,216.4
	l1.6-13.4l6.6,5.5L431.1,216.4z"/>
<path class="st3" d="M341.9,330.6l12.4,4l26.1,11.1L341.9,330.6z"/>
<path class="st2" d="M424.8,235.3l6.3-19l5.5,4.2L424.8,235.3z M424.8,235.3l-51.5-17l12.3-6.2L424.8,235.3z"/>
<path class="st2" d="M397.8,154l-12.3,58.2l-12.3,6.2L397.8,154z"/>
<path class="st2" d="M435.2,191.9l-49.6,20.3l12.3-58.2L435.2,191.9z"/>
<path class="st2" d="M397.8,154l51.8-6l-14.4,43.9L397.8,154z"/>
<path class="st1" d="M424.8,235.3l-17.3,12l-34.2-28.9L424.8,235.3z"/>
<path class="st2" d="M447.4,106.1l2.2,41.9l-51.8,6L447.4,106.1z"/>
<path class="st3" d="M447.4,106.1l-103.5,75.2l-1.3-51L447.4,106.1z"/>
<path class="st1" d="M265.6,124.2l76.9,6.1l1.3,51L265.6,124.2z"/>
<path class="st2" d="M373.3,218.4l-29.4-37.1l53.9-27.3L373.3,218.4z"/>
<path class="st0" d="M373.3,218.4l34.2,28.9l-48,5.3L373.3,218.4z"/>
<path class="st0" d="M359.5,252.6l-15.6-71.3l29.4,37.1L359.5,252.6z"/>
<path class="st2" d="M397.8,154l-53.9,27.3l103.5-75.2L397.8,154z"/>
<path class="st4" d="M266.3,344.4l24.4,25.5l-33.2-30.3L266.3,344.4z"/>
<path class="st5" d="M380.3,345.6l11.6-44l22.9-3.3L380.3,345.6z"/>
<path class="st3" d="M167.2,221.8l42.3-44.4l-36.8,39.1L167.2,221.8z"/>
<path class="st1" d="M414.9,298.3l-22.9,3.3l15.6-54.3L414.9,298.3z M343.9,181.3l-41.2-1.3l-37.1-55.8L343.9,181.3z"/>
<path class="st6" d="M407.5,247.3l-15.6,54.3l-1.3-26.5L407.5,247.3z"/>
<path class="st5" d="M359.5,252.6l48-5.3l-16.9,27.8L359.5,252.6z"/>
<path class="st1" d="M302.7,180l41.2,1.3l15.6,71.3L302.7,180z"/>
<path class="st0" d="M302.7,180L191.6,77.2l74,47L302.7,180z M265.5,360L169,389.9l-19.3-73.6L265.5,360z"/>
<path class="st2" d="M181.6,240.2l36.5-28.6l30.6,7.1L181.6,240.2z"/>
<path class="st2" d="M248.6,218.7l-30.6-7.1l16.4-67.5L248.6,218.7z"/>
<path class="st2" d="M172.7,216.5l45.3-4.9l-36.5,28.6L172.7,216.5z"/>
<path class="st5" d="M390.7,275.1l-18.8-9.5l-12.3-13L390.7,275.1z"/>
<path class="st2" d="M172.7,216.5l-3.2-17l48.6,12L172.7,216.5z"/>
<path class="st7" d="M367.9,287l3.9-21.4l18.8,9.5L367.9,287z"/>
<path class="st1" d="M391.9,301.6l-24-14.6l22.7-11.9L391.9,301.6z"/>
<path class="st2" d="M218,211.6l-48.6-12l-4-14.3L218,211.6z M234.4,144.1L218,211.6l-52.5-26.3L234.4,144.1z M234.4,144.1
	l68.4,35.9l-54.2,38.7L234.4,144.1z"/>
<path class="st0" d="M248.6,218.7l54.2-38.7l24.1,73.7L248.6,218.7z M326.9,253.7l-74.9-1.6l-3.4-33.5L326.9,253.7z"/>
<path class="st1" d="M181.6,240.2l67-21.5l3.4,33.5L181.6,240.2z M359.5,252.6l-32.6,1.1L302.7,180L359.5,252.6z"/>
<path class="st5" d="M371.8,265.6l-3.9,21.4l-8.4-34.4L371.8,265.6z"/>
<path class="st2" d="M191.6,77.2L302.7,180l-68.4-35.9L191.6,77.2z"/>
<path class="st0" d="M149.7,316.3l93.7-3.9l22.1,47.6L149.7,316.3z"/>
<path class="st5" d="M265.5,360l-22.1-47.6l46-2.2L265.5,360z"/>
<path class="st1" d="M367.9,287l24,14.6l13.2,31.2L367.9,287z M252,252.2l-102.3,64.2l31.8-76.1L252,252.2z M243.4,312.4l-93.7,3.9
	L252,252.2L243.4,312.4z M359.5,252.6l6.1,22.3l-29.6,1.7L359.5,252.6z M336,276.6l-9.2-22.9l32.6-1.1L336,276.6z"/>
<path class="st4" d="M290.7,369.9l-25.2-9.9l87.6,14.7L290.7,369.9z"/>
<path class="st2" d="M181.6,240.2l-14.3-18.4l5.5-5.3L181.6,240.2z"/>
<path class="st8" d="M363,363.8l-9.9,10.9L265.5,360L363,363.8z"/>
<path class="st0" d="M367.7,337.1L265.5,360l23.9-49.8L367.7,337.1z"/>
<path class="st8" d="M265.5,360l102.2-22.9l-4.7,26.7L265.5,360z"/>
<path class="st2" d="M165.5,185.3l-3.4-57.4l72.2,16.2L165.5,185.3z M172.7,216.5l-9.9-10.1l6.7-6.9L172.7,216.5z"/>
<path class="st5" d="M310.1,268.5l16.7-14.8l-2.4,36.2L310.1,268.5z"/>
<path class="st5" d="M326.9,253.7l-16.7,14.8l-24.4,12.6L326.9,253.7z"/>
<path class="st1" d="M405.1,332.8l-4.6-3.4L367.9,287L405.1,332.8z"/>
<path class="st5" d="M285.8,281.1l-33.8-29l74.9,1.6L285.8,281.1z"/>
<path class="st6" d="M324.5,289.9l2.4-36.2l9.2,22.9L324.5,289.9z"/>
<path class="st2" d="M159.4,191l6.1-5.7l4,14.3L159.4,191z"/>
<path class="st7" d="M324.5,289.9l-38.7-8.7l24.4-12.6L324.5,289.9z"/>
<path class="st2" d="M234.4,144.1l-72.2-16.2l29.5-50.6L234.4,144.1z"/>
<path class="st4" d="M353.1,374.7l4.1,11.2l-66.5-16.1L353.1,374.7z"/>
<path class="st1" d="M289.4,310.2l-3.7-29.1l38.7,8.7L289.4,310.2z"/>
<path class="st6" d="M252,252.2l33.8,29l3.7,29.1L252,252.2z"/>
<path class="st1" d="M336,276.6l29.6-1.7l35,54.5L336,276.6z M252,252.2l37.4,58l-46,2.2L252,252.2z"/>
<path class="st6" d="M336,276.6l36.8,56l-48.3-42.7L336,276.6z"/>
<path class="st1" d="M324.5,289.9l48.3,42.7l-5.1,4.6L324.5,289.9z"/>
<path class="st1" d="M367.7,337.1l-78.3-26.9l35-20.3L367.7,337.1z M400.6,329.4l-27.8,3.1l-36.8-56L400.6,329.4z"/>
<path class="st4" d="M407.9,355.7l-12,24l-38.8,6.3L407.9,355.7z M357.2,385.9l-4.1-11.2l9.9-10.9L357.2,385.9z"/>
<path class="st4" d="M363,363.8l7.3-2.9l-13.1,25L363,363.8z M357.2,385.9l13.1-25l37.6-5.2L357.2,385.9z"/>
<path class="st9" d="M400.6,329.4l9.2,5.6l-27.9,3.4L400.6,329.4z"/>
<path class="st9" d="M381.8,338.4l-9-5.8l27.8-3.1L381.8,338.4z M378.6,342.8l34-4.1l-4.7,17L378.6,342.8z"/>
<path class="st9" d="M407.9,355.7l-37.6,5.2l8.3-18.2L407.9,355.7z M370.3,360.9l-7.3,2.9l4.7-26.7L370.3,360.9z M367.7,337.1
	l5.1-4.6l9,5.8L367.7,337.1z M409.8,335l2.8,3.7l-34,4.1L409.8,335z"/>
<path class="st9" d="M378.6,342.8l3.2-4.4l27.9-3.4L378.6,342.8z M367.7,337.1l10.9,5.7l-8.3,18.2L367.7,337.1z"/>
<path class="st9" d="M381.8,338.4l-3.2,4.4l-10.9-5.7L381.8,338.4z"/>
</svg>
